# xmcd
#
# Track frame offsets:
#	150
#	6928
#	21203
#	37230
#	53798
#	74226
#	90616
#	109155
#	130705
#	147776
#	165302
#	186356
#	199106
#
# Disc length: 2839 seconds
#
# Revision: 1
# Processed by: cddbd v1.5.2PL0 Copyright (c) Steve Scherf et al.
# Submitted via: audiograbber 1.83.01
#
DISCID=b90b150d
DTITLE=Various Artist - NASCAR: Fast Lane
DYEAR=2005
DGENRE=R&B
TTITLE0=David Robidoux - Thunder (The Nascar Theme)(Rock Remix)
TTITLE1=Good Charlotte - LIfestyles Of The Rich and Famous (Brian Vickers' Favori
TTITLE1=te)
TTITLE2=Incubus - Wish You Were Here (Kyle Busch's Favorite)
TTITLE3=Run DMC With Aerosmith - Walk This Way (Jimmie Johnson's Favorite)
TTITLE4=Finger Eleven - One Thing (Jeff Gordon's Favorite)
TTITLE5=George Strait - Cowboys Like Us (Terry Labonte's Favorite)
TTITLE6=Bela Fleck and The Flecktones - Off The Top (The Gravity Wheel) (Jimmie J
TTITLE6=ohnson's Favorite)
TTITLE7=Willie Nelson and Merle Haggard - Pancho And Lefty (Terry Labonte's Favor
TTITLE7=ite)
TTITLE8=Jamiroquai - Virtual Insanity (Jimmie Johnson's Favorite)
TTITLE9=Lenny Kravitz - Always On The Run (Jeff Gordon's Favorite)
TTITLE10=Godsmack - Voodoo (Kyle Busch's Favorite)
TTITLE11=Lit - My Own Worst Enemy (Brian Vickers' Favorite)
TTITLE12=Mooney Suzuki - Alive and Amplified
EXTD=
EXTT0=
EXTT1=
EXTT2=
EXTT3=
EXTT4=
EXTT5=
EXTT6=
EXTT7=
EXTT8=
EXTT9=
EXTT10=
EXTT11=
EXTT12=
PLAYORDER=
